<?xml version="1.0"?>
<svg xmlns="http://www.w3.org/2000/svg" viewBox="34.1 -3.9 52 52"><g>
    <circle fill="#FFFFFF" cx="57.46" cy="17.79" r="4.37"></circle>
    <path fill="#FFFFFF" d="m75.32,2.11h-.67s-.02,0-.03,0c-.24-.65-.73-1.1-1.3-1.1-.81,0-1.47.91-1.47,2.02s.66,2.02,1.47,2.02c.45,0,.84-.28,1.11-.71.07.01.14.04.22.04h.61v5.26c0,2.34-1.9,4.24-4.24,4.24s-4.24-1.9-4.24-4.24v-5.26h.61c.08,0,.14-.03.22-.04.27.43.67.71,1.11.71.81,0,1.47-.91,1.47-2.02s-.66-2.02-1.47-2.02c-.57,0-1.06.45-1.3,1.1,0,0-.02,0-.03,0h-.67c-1.23,0-2.22.99-2.22,2.22v5.32c0,3.16,2.31,5.85,5.38,6.4v1.49c-.15,2.08-.8,4.08-1.93,5.84l-10.49,16.31-10.49-16.31-.02-.04c-1.28-2-1.96-4.32-1.96-6.71,0-6.87,5.59-12.47,12.47-12.47,1.43,0,2.79.25,4.07.69.29-.78.62-1.33.98-2.13-1.58-.58-3.28-.9-5.05-.9-8.16,0-14.8,6.64-14.8,14.8,0,2.83.8,5.59,2.32,7.97h0s0,.01,0,.01l.02.03,11.69,18.18c.17.26.45.42.77.42s.6-.16.77-.42l11.68-18.18c1.2-1.86,1.92-3.96,2.2-6.14h.05s0-.43,0-.43c.02-.25.07-.49.08-.74-.03,0-.06.01-.08.02v-1.28c3.07-.58,5.38-3.28,5.38-6.43v-5.32c0-1.23-.99-2.22-2.22-2.22Z"></path>
  </g></svg>